<svg width="512" height="512" viewBox="0 0 512 512" xmlns="http://www.w3.org/2000/svg">
  <!-- fondo negro -->
  <rect x="0" y="0" width="512" height="512" rx="112" fill="#FFFFFF"/>

  <!-- tarjeta trasera (violeta) -->
  <g transform="rotate(-8, 256, 256)">
    <rect x="74" y="164" width="364" height="234" rx="26" fill="#7C3AED"/>
  </g>

  <!-- tarjeta media (amarilla) -->
  <g transform="rotate(4, 256, 256)">
    <rect x="74" y="164" width="364" height="234" rx="26" fill="#F59E0B"/>
  </g>

  <!-- tarjeta frontal (azul eléctrico — diferente a Apple) -->
  <rect x="74" y="182" width="364" height="234" rx="26" fill="#2563EB"/>

  <!-- chip dorado -->
  <rect x="122" y="228" width="70" height="54" rx="8" fill="#D4A843"/>
  <line x1="122" y1="244" x2="192" y2="244" stroke="#B8902E" stroke-width="2"/>
  <line x1="122" y1="260" x2="192" y2="260" stroke="#B8902E" stroke-width="2"/>
  <line x1="140" y1="228" x2="140" y2="282" stroke="#B8902E" stroke-width="2"/>
  <line x1="158" y1="228" x2="158" y2="282" stroke="#B8902E" stroke-width="2"/>
  <line x1="176" y1="228" x2="176" y2="282" stroke="#B8902E" stroke-width="2"/>

  <!-- puntos de número -->
  <circle cx="214" cy="358" r="8" fill="rgba(255,255,255,0.5)"/>
  <circle cx="240" cy="358" r="8" fill="rgba(255,255,255,0.5)"/>
  <circle cx="266" cy="358" r="8" fill="rgba(255,255,255,0.5)"/>
  <circle cx="292" cy="358" r="8" fill="rgba(255,255,255,0.5)"/>
  <circle cx="330" cy="358" r="8" fill="rgba(255,255,255,0.5)"/>
  <circle cx="356" cy="358" r="8" fill="rgba(255,255,255,0.5)"/>
  <circle cx="382" cy="358" r="8" fill="rgba(255,255,255,0.5)"/>
</svg>
