<svg width="192" height="192" viewBox="0 0 192 192" xmlns="http://www.w3.org/2000/svg">
  <!-- fondo negro -->
  <rect x="0" y="0" width="192" height="192" rx="42" fill="#FFFFFF"/>

  <!-- tarjeta trasera (violeta) -->
  <g transform="rotate(-8, 96, 96)">
    <rect x="28" y="62" width="136" height="88" rx="10" fill="#7C3AED"/>
  </g>

  <!-- tarjeta media (amarilla) -->
  <g transform="rotate(4, 96, 96)">
    <rect x="28" y="62" width="136" height="88" rx="10" fill="#F59E0B"/>
  </g>

  <!-- tarjeta frontal (azul eléctrico — diferente a Apple) -->
  <rect x="28" y="68" width="136" height="88" rx="10" fill="#2563EB"/>

  <!-- chip dorado -->
  <rect x="46" y="86" width="26" height="20" rx="3" fill="#D4A843"/>
  <line x1="46" y1="92" x2="72" y2="92" stroke="#B8902E" stroke-width="0.8"/>
  <line x1="46" y1="98" x2="72" y2="98" stroke="#B8902E" stroke-width="0.8"/>
  <line x1="52" y1="86" x2="52" y2="106" stroke="#B8902E" stroke-width="0.8"/>
  <line x1="59" y1="86" x2="59" y2="106" stroke="#B8902E" stroke-width="0.8"/>
  <line x1="66" y1="86" x2="66" y2="106" stroke="#B8902E" stroke-width="0.8"/>

  <!-- puntos de número -->
  <circle cx="80" cy="134" r="3" fill="rgba(255,255,255,0.5)"/>
  <circle cx="90" cy="134" r="3" fill="rgba(255,255,255,0.5)"/>
  <circle cx="100" cy="134" r="3" fill="rgba(255,255,255,0.5)"/>
  <circle cx="110" cy="134" r="3" fill="rgba(255,255,255,0.5)"/>
  <circle cx="124" cy="134" r="3" fill="rgba(255,255,255,0.5)"/>
  <circle cx="134" cy="134" r="3" fill="rgba(255,255,255,0.5)"/>
  <circle cx="144" cy="134" r="3" fill="rgba(255,255,255,0.5)"/>
</svg>
